<svg width="27" height="26" viewBox="0 0 27 26" fill="none" xmlns="http://www.w3.org/2000/svg">
<g id="uil:search">
<path id="Vector" d="M23.6386 21.8704L19.6824 17.9431C21.2181 16.0269 21.9618 13.5946 21.7605 11.1465C21.5593 8.69834 20.4285 6.42039 18.6005 4.78103C16.7726 3.14167 14.3865 2.26551 11.9329 2.3327C9.47922 2.39989 7.14457 3.40533 5.40894 5.14227C3.67331 6.87922 2.66864 9.21565 2.6015 11.6711C2.53436 14.1266 3.40985 16.5146 5.04797 18.3439C6.68608 20.1732 8.96231 21.3049 11.4086 21.5063C13.8549 21.7077 16.2853 20.9634 18.2001 19.4265L22.1244 23.3538C22.2235 23.4538 22.3415 23.5332 22.4714 23.5874C22.6014 23.6416 22.7407 23.6695 22.8815 23.6695C23.0223 23.6695 23.1617 23.6416 23.2916 23.5874C23.4216 23.5332 23.5395 23.4538 23.6386 23.3538C23.8309 23.1548 23.9383 22.8889 23.9383 22.6121C23.9383 22.3354 23.8309 22.0694 23.6386 21.8704ZM12.2177 19.4265C10.7413 19.4265 9.29806 18.9884 8.07049 18.1676C6.84293 17.3467 5.88616 16.18 5.32118 14.815C4.75619 13.4499 4.60836 11.9479 4.89639 10.4988C5.18442 9.04966 5.89536 7.71857 6.93932 6.67382C7.98328 5.62907 9.31336 4.91758 10.7614 4.62934C12.2094 4.34109 13.7103 4.48903 15.0743 5.05445C16.4383 5.61986 17.6041 6.57736 18.4243 7.80585C19.2446 9.03435 19.6824 10.4787 19.6824 11.9562C19.6824 13.9374 18.8959 15.8376 17.496 17.2385C16.0961 18.6395 14.1974 19.4265 12.2177 19.4265Z" fill="#7B7B7B"/>
</g>
</svg>
